# xmcd CD database file
#
# Track frame offsets:
#	150
#	21280
#	44740
#	70127
#	99002
#	124745
#	149825
#	175322
#	194060
#	219357
#
# Disc length: 3142 seconds
#
# Revision: 2
# Processed by: cddbd v1.4PL0 Copyright (c) Steve Scherf et al.
# Submitted via: CDex 1.50Beta7
#
DISCID=9a0c440a
DTITLE=Guarneri Underground - Captive
DYEAR=2000
DGENRE=New Age
TTITLE0=Uplands Ride
TTITLE1=Big Island
TTITLE2=Bathers at Asmieres
TTITLE3=Mango Twister
TTITLE4=Assisi
TTITLE5=Captive
TTITLE6=Bloodmoon
TTITLE7=Surfin' Ivory
TTITLE8=Playa
TTITLE9=Storybook
EXTD=YEAR: 2000
EXTT0=
EXTT1=
EXTT2=
EXTT3=
EXTT4=
EXTT5=
EXTT6=
EXTT7=
EXTT8=
EXTT9=
PLAYORDER=
